<svg width="48" height="48" viewBox="0 0 48 48" fill="none" xmlns="http://www.w3.org/2000/svg">
<path d="M12 40V17.7143C12 16.7675 12.7675 16 13.7143 16C14.6611 16 15.4286 16.7675 15.4286 17.7143V35.3111C15.4286 36.2579 16.1961 37.0254 17.1429 37.0254C18.0896 37.0254 18.8571 36.2579 18.8571 35.3111V17.7143C18.8571 16.7675 19.6247 16 20.5714 16C21.5182 16 22.2857 16.7675 22.2857 17.7143V35.3111C22.2857 36.2579 23.0532 37.0254 24 37.0254C24.9468 37.0254 25.7143 36.2579 25.7143 35.3111V17.7143C25.7143 16.7675 26.4818 16 27.4286 16C28.3753 16 29.1429 16.7675 29.1429 17.7143V35.3111C29.1429 36.2579 29.9104 37.0254 30.8571 37.0254C31.8039 37.0254 32.5714 36.2579 32.5714 35.3111V17.7143C32.5714 16.7675 33.3389 16 34.2857 16C35.2325 16 36 16.7675 36 17.7143V40C36 41.1046 35.1046 42 34 42H14C12.8954 42 12 41.1046 12 40Z" stroke="#2E2E30" stroke-width="2"/>
<path d="M36.6364 12H11.3636C10.6105 12 10 11.3895 10 10.6364C10 9.88325 10.6105 9.27273 11.3636 9.27273H20.8636C21.7674 9.27273 22.5 8.5401 22.5 7.63636V7.5C22.5 6.67157 23.1716 6 24 6C24.8284 6 25.5 6.67157 25.5 7.5V7.63636C25.5 8.5401 26.2326 9.27273 27.1364 9.27273H36.6364C37.3895 9.27273 38 9.88325 38 10.6364C38 11.3895 37.3895 12 36.6364 12Z" stroke="#2E2E30" stroke-width="2"/>
</svg>
