<svg width="48" height="48" viewBox="0 0 48 48" fill="none" xmlns="http://www.w3.org/2000/svg">
<path d="M38.4429 21.8054L41 14.7794M38.4429 21.8054L31.7357 18.3247M38.4429 21.8054L36.8958 17.9546C34.4123 12.3061 29.6825 8 23.0874 8C14.2026 8 7 15.1634 7 24C7 32.8366 14.2026 40 23.0874 40C28.7618 40 34.5234 36.5977 36.614 31.6646" stroke="white" stroke-width="4" stroke-linecap="round"/>
<path d="M18.255 18.8182V29H16.1023V20.8615H16.0426L13.7109 22.3232V20.4141L16.2315 18.8182H18.255ZM24.6671 29.2237C23.812 29.2204 23.0762 29.0099 22.4597 28.5923C21.8465 28.1747 21.3742 27.5698 21.0428 26.7777C20.7147 25.9856 20.5523 25.0327 20.5556 23.919C20.5556 22.8087 20.7196 21.8625 21.0478 21.0803C21.3792 20.2981 21.8515 19.7031 22.4647 19.2955C23.0811 18.8845 23.8153 18.679 24.6671 18.679C25.5189 18.679 26.2514 18.8845 26.8645 19.2955C27.481 19.7064 27.955 20.303 28.2864 21.0852C28.6178 21.8641 28.7819 22.8087 28.7786 23.919C28.7786 25.036 28.6129 25.9905 28.2814 26.7827C27.9533 27.5748 27.4827 28.1797 26.8695 28.5973C26.2563 29.0149 25.5222 29.2237 24.6671 29.2237ZM24.6671 27.4389C25.2504 27.4389 25.7161 27.1456 26.0641 26.5589C26.4121 25.9723 26.5845 25.0923 26.5811 23.919C26.5811 23.1468 26.5016 22.5038 26.3425 21.9901C26.1867 21.4763 25.9647 21.0902 25.6763 20.8317C25.3913 20.5732 25.0549 20.4439 24.6671 20.4439C24.0871 20.4439 23.623 20.7339 23.275 21.3139C22.927 21.8939 22.7514 22.7623 22.748 23.919C22.748 24.7012 22.8259 25.3542 22.9817 25.8778C23.1408 26.3982 23.3645 26.7893 23.6529 27.0511C23.9412 27.3097 24.2793 27.4389 24.6671 27.4389Z" fill="white"/>
</svg>
