<svg width="24" height="24" viewBox="0 0 24 24" fill="none" xmlns="http://www.w3.org/2000/svg">
<path d="M22.8 2H6C5.68174 2 5.37652 2.1317 5.15147 2.36612C4.92643 2.60054 4.8 2.91848 4.8 3.25V7H10.8V4.5H18V17H22.8C23.1183 17 23.4235 16.8683 23.6485 16.6339C23.8736 16.3995 24 16.0815 24 15.75V3.25C24 2.91848 23.8736 2.60054 23.6485 2.36612C23.4235 2.1317 23.1183 2 22.8 2ZM8.7 6.02344C8.7 6.11668 8.66444 6.2061 8.60115 6.27203C8.53786 6.33796 8.45201 6.375 8.3625 6.375H7.2375C7.14799 6.375 7.06215 6.33796 6.99885 6.27203C6.93556 6.2061 6.9 6.11668 6.9 6.02344V4.85156C6.9 4.75832 6.93556 4.6689 6.99885 4.60297C7.06215 4.53704 7.14799 4.5 7.2375 4.5H8.3625C8.45201 4.5 8.53786 4.53704 8.60115 4.60297C8.66444 4.6689 8.7 4.75832 8.7 4.85156V6.02344ZM21.9 14.1484C21.9 14.2417 21.8644 14.3311 21.8011 14.397C21.7379 14.463 21.652 14.5 21.5625 14.5H20.4375C20.348 14.5 20.2621 14.463 20.1989 14.397C20.1356 14.3311 20.1 14.2417 20.1 14.1484V12.9766C20.1 12.8833 20.1356 12.7939 20.1989 12.728C20.2621 12.662 20.348 12.625 20.4375 12.625H21.5625C21.652 12.625 21.7379 12.662 21.8011 12.728C21.8644 12.7939 21.9 12.8833 21.9 12.9766V14.1484ZM21.9 10.0859C21.9 10.1792 21.8644 10.2686 21.8011 10.3345C21.7379 10.4005 21.652 10.4375 21.5625 10.4375H20.4375C20.348 10.4375 20.2621 10.4005 20.1989 10.3345C20.1356 10.2686 20.1 10.1792 20.1 10.0859V8.91406C20.1 8.82082 20.1356 8.7314 20.1989 8.66547C20.2621 8.59954 20.348 8.5625 20.4375 8.5625H21.5625C21.652 8.5625 21.7379 8.59954 21.8011 8.66547C21.8644 8.7314 21.9 8.82082 21.9 8.91406V10.0859ZM21.9 6.02344C21.9 6.11668 21.8644 6.2061 21.8011 6.27203C21.7379 6.33796 21.652 6.375 21.5625 6.375H20.4375C20.348 6.375 20.2621 6.33796 20.1989 6.27203C20.1356 6.2061 20.1 6.11668 20.1 6.02344V4.85156C20.1 4.75832 20.1356 4.6689 20.1989 4.60297C20.2621 4.53704 20.348 4.5 20.4375 4.5H21.5625C21.652 4.5 21.7379 4.53704 21.8011 4.60297C21.8644 4.6689 21.9 4.75832 21.9 4.85156V6.02344ZM15.6 8.25H1.2C0.88174 8.25 0.576516 8.3817 0.351472 8.61612C0.126428 8.85054 0 9.16848 0 9.5L0 20.75C0 21.0815 0.126428 21.3995 0.351472 21.6339C0.576516 21.8683 0.88174 22 1.2 22H15.6C15.9183 22 16.2235 21.8683 16.4485 21.6339C16.6736 21.3995 16.8 21.0815 16.8 20.75V9.5C16.8 9.16848 16.6736 8.85054 16.4485 8.61612C16.2235 8.3817 15.9183 8.25 15.6 8.25ZM3.6 10.75C3.83734 10.75 4.06935 10.8233 4.26668 10.9607C4.46402 11.098 4.61783 11.2932 4.70866 11.5216C4.79948 11.7501 4.82324 12.0014 4.77694 12.2439C4.73064 12.4863 4.61635 12.7091 4.44853 12.8839C4.28071 13.0587 4.06689 13.1778 3.83411 13.226C3.60133 13.2742 3.36005 13.2495 3.14078 13.1548C2.92151 13.0602 2.73409 12.9 2.60224 12.6945C2.47038 12.4889 2.4 12.2472 2.4 12C2.4 11.6685 2.52643 11.3505 2.75147 11.1161C2.97652 10.8817 3.28174 10.75 3.6 10.75ZM14.4 19.5H2.4V18.25L4.8 15.75L6 17L10.8 12L14.4 15.75V19.5Z" fill="black"/>
</svg>
