<svg width="24" height="24" viewBox="0 0 24 24" fill="none" xmlns="http://www.w3.org/2000/svg">
<path d="M2.25 1C1.00781 1 0 2.0558 0 3.35714V20.6429C0 21.9442 1.00781 23 2.25 23H21.75C22.9922 23 24 21.9442 24 20.6429V3.35714C24 2.0558 22.9922 1 21.75 1H2.25ZM2.25 2.57143H7.21875C7.37344 2.57143 7.5 2.70402 7.5 2.86607V3.84821C7.5 4.01027 7.37344 4.14286 7.21875 4.14286H1.78125C1.62656 4.14286 1.5 4.01027 1.5 3.84821V3.35714C1.5 2.925 1.8375 2.57143 2.25 2.57143ZM22.2188 7.28571H1.78125C1.62656 7.28571 1.5 7.15312 1.5 6.99107V5.22321C1.5 5.06116 1.62656 4.92857 1.78125 4.92857H8.25L9.66562 2.70402C9.71719 2.62054 9.80625 2.57143 9.9 2.57143H21.75C22.1625 2.57143 22.5 2.925 22.5 3.35714V6.99107C22.5 7.15312 22.3734 7.28571 22.2188 7.28571ZM12 20.25C8.89688 20.25 6.375 17.608 6.375 14.3571C6.375 11.1062 8.89688 8.46429 12 8.46429C15.1031 8.46429 17.625 11.1062 17.625 14.3571C17.625 17.608 15.1031 20.25 12 20.25ZM12 10.0357C9.72656 10.0357 7.875 11.9754 7.875 14.3571C7.875 16.7388 9.72656 18.6786 12 18.6786C14.2734 18.6786 16.125 16.7388 16.125 14.3571C16.125 11.9754 14.2734 10.0357 12 10.0357ZM9.75 15.1429C9.3375 15.1429 9 14.7893 9 14.3571C9 12.6237 10.3453 11.2143 12 11.2143C12.4125 11.2143 12.75 11.5679 12.75 12C12.75 12.4321 12.4125 12.7857 12 12.7857C11.175 12.7857 10.5 13.4929 10.5 14.3571C10.5 14.7893 10.1625 15.1429 9.75 15.1429Z" fill="black"/>
</svg>
