<svg width="48" height="48" viewBox="0 0 48 48" fill="none" xmlns="http://www.w3.org/2000/svg">
<path d="M9.55711 21.8054L7 14.7794M9.55711 21.8054L16.2643 18.3247M9.55711 21.8054L11.1042 17.9546C13.5877 12.3061 18.3175 8 24.9126 8C33.7974 8 41 15.1634 41 24C41 32.8366 33.7974 40 24.9126 40C19.2382 40 13.4766 36.5977 11.386 31.6646" stroke="white" stroke-width="4" stroke-linecap="round"/>
<path d="M23.255 18.8182V29H21.1023V20.8615H21.0426L18.7109 22.3232V20.4141L21.2315 18.8182H23.255ZM29.6671 29.2237C28.812 29.2204 28.0762 29.0099 27.4597 28.5923C26.8465 28.1747 26.3742 27.5698 26.0428 26.7777C25.7147 25.9856 25.5523 25.0327 25.5556 23.919C25.5556 22.8087 25.7196 21.8625 26.0478 21.0803C26.3792 20.2981 26.8515 19.7031 27.4647 19.2955C28.0811 18.8845 28.8153 18.679 29.6671 18.679C30.5189 18.679 31.2514 18.8845 31.8645 19.2955C32.481 19.7064 32.955 20.303 33.2864 21.0852C33.6178 21.8641 33.7819 22.8087 33.7786 23.919C33.7786 25.036 33.6129 25.9905 33.2814 26.7827C32.9533 27.5748 32.4827 28.1797 31.8695 28.5973C31.2563 29.0149 30.5222 29.2237 29.6671 29.2237ZM29.6671 27.4389C30.2504 27.4389 30.7161 27.1456 31.0641 26.5589C31.4121 25.9723 31.5845 25.0923 31.5811 23.919C31.5811 23.1468 31.5016 22.5038 31.3425 21.9901C31.1867 21.4763 30.9647 21.0902 30.6763 20.8317C30.3913 20.5732 30.0549 20.4439 29.6671 20.4439C29.0871 20.4439 28.623 20.7339 28.275 21.3139C27.927 21.8939 27.7514 22.7623 27.748 23.919C27.748 24.7012 27.8259 25.3542 27.9817 25.8778C28.1408 26.3982 28.3645 26.7893 28.6529 27.0511C28.9412 27.3097 29.2793 27.4389 29.6671 27.4389Z" fill="white"/>
</svg>
