<svg width="24" height="24" viewBox="0 0 24 24" fill="none" xmlns="http://www.w3.org/2000/svg">
<path d="M19.2727 9H18.5455C18.1436 9 17.8182 9.33562 17.8182 9.75V12C17.8182 15.5063 14.8868 18.3197 11.4186 17.9709C8.39591 17.6667 6.18182 14.8645 6.18182 11.7328V9.75C6.18182 9.33562 5.85636 9 5.45455 9H4.72727C4.32545 9 4 9.33562 4 9.75V11.6325C4 15.8344 6.90773 19.5802 10.9091 20.1492V21.75H8.36364C7.96182 21.75 7.63636 22.0856 7.63636 22.5V23.25C7.63636 23.6644 7.96182 24 8.36364 24H15.6364C16.0382 24 16.3636 23.6644 16.3636 23.25V22.5C16.3636 22.0856 16.0382 21.75 15.6364 21.75H13.0909V20.167C16.9868 19.6158 20 16.1672 20 12V9.75C20 9.33562 19.6745 9 19.2727 9ZM12 16.5C14.41 16.5 16.3636 14.4853 16.3636 12H12.485C12.2173 12 12 11.8322 12 11.625V10.875C12 10.6678 12.2173 10.5 12.485 10.5H16.3636V9H12.485C12.2173 9 12 8.83219 12 8.625V7.875C12 7.66781 12.2173 7.5 12.485 7.5H16.3636V6H12.485C12.2173 6 12 5.83219 12 5.625V4.875C12 4.66781 12.2173 4.5 12.485 4.5H16.3636C16.3636 2.01469 14.41 0 12 0C9.59 0 7.63636 2.01469 7.63636 4.5V12C7.63636 14.4853 9.59 16.5 12 16.5Z" fill="black"/>
</svg>
